/* XPM */
static char *result[] = {
/* columns rows colors chars-per-pixel */
"64 64 85 1 ",
"  c #010101",
". c #0A0300",
"X c #070800",
"o c #090A02",
"O c #020109",
"+ c #08040B",
"@ c #090908",
"# c #100500",
"$ c #1A0600",
"% c #120F00",
"& c #121000",
"* c #3F3F3F",
"= c #3E423C",
"- c #42433E",
"; c #46483F",
": c #3D3E40",
"> c #3F4440",
", c #454545",
"< c #484746",
"1 c #464943",
"2 c #4A4A45",
"3 c #454549",
"4 c #49464C",
"5 c #46494A",
"6 c #4A4A4A",
"7 c #F0E72C",
"8 c #E7F02E",
"9 c #E7EF31",
"0 c #F7EE37",
"q c #F1E53F",
"w c #EEF535",
"e c #EDF138",
"r c #E5EE45",
"t c #EBE749",
"y c #F4E845",
"u c #F9EC43",
"i c #F3EC4D",
"p c #E7F047",
"a c #EFDE7C",
"s c #E2E86C",
"d c #E2E774",
"f c #EFE074",
"g c #E8EE7A",
"h c #F6E57B",
"j c #E8F071",
"k c #AEADAE",
"l c #B1AFAC",
"z c #AEB1A5",
"x c #AEB2AD",
"c c #B1B2A7",
"v c #B2B3AD",
"b c #B4B9AF",
"n c #B9BAAE",
"m c #AFAFB1",
"M c #B1AFB4",
"N c #B1AEBB",
"B c #AFB1B2",
"V c #B4B4B4",
"C c #B8B4B5",
"Z c #B6B9B4",
"A c #B9BBB5",
"S c #B5B4BA",
"D c #B9B5BA",
"F c #B6B9BB",
"G c #BAB9BA",
"H c #F6E484",
"J c #EDE59D",
"K c #EEE89B",
"L c #E7DCBF",
"P c #EDE5A4",
"I c #EAE2AB",
"U c #F2ECAA",
"Y c #EAE3B4",
"T c #E7E0BA",
"R c #ECE3BB",
"E c #F0E7B6",
"W c #F2E8BE",
"Q c #B7B6C4",
"! c #BDB7C2",
"~ c #E7DCC1",
"^ c #ECE4C3",
"/ c #EBE1CB",
"( c #F1E8C0",
") c #E9E0D0",
"_ c #FEFEFE",
/* pixels */
"VVVVVVVVVVVVVVVVV    VV                  VV    VVVVVVVVVVVVVVVVV",
"VVVVVVVVVVVVVVVVV    kG                  Gx    VVVVVSVVVVVVVVVVV",
"VVVVSVVVVVVVVVVVV  @   53<,,5<<5,5223<,,6   @  VVVVVVVVVVVVVVVVV",
"VVVVVVVVVVVVVVVVV      ,,<5,,<,3,,,3,<5,,      VVVVVVVVVVVVVVVVV",
"VVVVVVVVVVVVVVVVV  56<,52,2,31,1<,,,213,5,,55  VVVVVVVVVVVVVVVVV",
"VVVVVVVVVVVVVVVSV  5,,5,13,3,332,<5<,3,<,4,-6  VVVVVVVVVVVVVVVVV",
"VVVVVVVVCVVVVVVVV  ,,6,,3,3,2,2,3<13,35<,,6,,  VVVVVVVVVVVVVVVVS",
"VVVVVVVVVVVVVVVVV  6,,6,,2,2,33,,,3,2<,,26<,5  VVVVVVVVVVVVVVVVV",
"VVVVVVVVVVVVVVVVV  3,5,__5,,<5,,5,5<,,4__,5,,@ VVVVVVVVVVVVVVVCV",
"VVVVVVVVVVVVVVVVV  1,5,__6,,<,5,<5,<-,6__,5,,  BVVVVVVVVVVVVVVVV",
"VVVVVVVVVVVVVVVVV  ,,<,______,5,,<,______,<,,  VVVVVVVVVVVVVSVVV",
"VVVVVVVVVVVVVVSVV  ,66,______<,14,,______,66,  VVVVVVVVVVVVVVVVV",
"CVVVVSVVVVVVVVVVV@ ,,,4,,,6<1,5,,,,,,6<,,5,,< @VVVVVVVVVVVVVZVVV",
"VVVVVVVVVVVVZVVVV  ,,<<,,5:<,6,52,6,,,6,,<<6,  VVVVVVVVSVVVVVVVV",
"VVVVVVVVVVVVVVVVV  ,5,,56,56,3,,,,,,65,52,,6,  SSVVVVVVVVVVVVVVV",
"VVVVVVVVVVVVVVVVV  ,2,,<,<,5,,3,,55,5,4,,3,5,  vVVVVVVVVVVVVVVVV",
"SVVVVVVVVVVVVVVVC  ,5,,,<,6335333,5,34,4,,544  VCVVVVVVVVVVVVVVV",
"VVVVVVVVVVVVVVVVV @5*555<<,,533553,6,,,<455:5. VVVVVVVVVCVVVVVVV",
"VVVVVVZVVVVVVVSVC  ,,5>              . . ,51<  VVVVVVVVVVVVVVVVV",
"VVVVVVVVVVVVVVVVV  ,6,2  ...  .. X.. .   ,,6,  vVVVVVVVVVVVVVVVV",
"VVVVVVVVVVVVVVVVVZB  56 .^RYW(~~/LWEIR^. 34  BGVVVVVVVVVVVVVSVVV",
"VVVVVVVVVVVVVVVVVxV O63  TPPP####.#PPPR .,4+ VxVVVVVVVVVVVVVVVVV",
"VVVVVVVVVVVVVVVVbZB  34 .YUKJ######JKUY. 43O BGVVZVVVVVVVVVVVVVV",
"VVVSVVVVVVVVVVVVZxVO 4,..RIIUI^/^RIUPI^. 34OXVxVVVVVVVVVVVVVVVVV",
"VVVVVVVVGxVVVVk    1= X  ..~L^/~)~^LR. . O =1  O vVVVVmVVVVVVVVS",
"VVVVVVVVVGVGVVV OO ;;    ......  ... ..    1; OO VVVGVGVVVCVVVVV",
"VVVVVVVVVVVmV  434,  xBSDCG         .GCDFmb  ,534  GkVVVVVVVVVVZ",
"VVVVCVVVVVVGk @,,5,  ZSSNMCAvbvVCVvvCVMMVFZ  ,633X kGVVVVVVVVVVV",
"VVVVSVVVVVV @*,,4  VVxBSCClcnnvvvvvnccACFBBBV  <3,>@ VVVVVVVVVVV",
"VVVVVVVVVVV  ,<,,o VVZGVMClGvlAZZAvvAvClVZFZx @,,3,  VVVVVVVVVVV",
"VVVVVVVVV  5,,5  zCVxVBBC +kCDlVVkDSk+ DBVBxZGk  4,,5  VVVVVVVVV",
"VVVVVVVVV@ ,,,,  AVvVFBFS  QDNVVZVMQS  SZVZVxVV  ,,,, @VVVVVVVVV",
"VVVVVVVVV  5,  VnvVVSSF    CFO vv OFV    GVVVVvVV  ,5  VCVVVVVVV",
"VVVVVVVVV  ,,  ACVASSmS  o VS  Vb OSV @  ZmSVAZZV  ,,  vVVVVVVVV",
"VVVVVVVVV  ,,  xxVBBSQV       .  .O  O   xQVVBVxv  ,,  VVVVVVSVV",
"VVVSVVVVV  25  VxVQFSBB  @O        OOOOOXxBSVZVVV  5,  VVVVVVVVV",
"VVVVVVVVV  ,,  VvVx  ZA    SxAV  VDVSOO  nZ  xVVV  ,,  VVVVVVVVV",
"VVVVVVVVV  ,5  VZZV oxv   OGvbl@oxVxG O Xcxo VSVV  6, XVVVVVVVVV",
"VVVVVVVVZ  6*@     X ZAxBX mnxSNNFvABO VxZZ    O  O-6  GVVVVVVVV",
"VVVVVVVVV  ,5   OOX  bBVV OSxbSQQSbxV  VZxbX  OO   5,  VVVVVVVVV",
"VVVVSVVVV  ,,  3343..lCCCMCVxVZxxFbxVVMCVCl..344,  <,  BVVVVVVVV",
"VVVVVVVVV  ,5  4444. CCDMDCVVbzbVzZBMCDMDCC..6444  5,  VVVSVVVVV",
"VVVVVVVVV  ,,  ,3-<o GCMM!NDvcACVAzbCC!NVCD o2-1,  ,,  VVVVVVVVV",
"VVVVVVVVV  52  13,, .X..X...o&X..X%o...XXo.  -;;2  55  VVVVVVVVV",
"VVVVVVVVG  ,,  ,2;2 ojr9wtH$y7uyuu7y$hte8rgo 2;1-  ,,  GVVVVVVVV",
"VVVVVVVVV  ,1  ,-<-Xospwwia$i00yqu0y$fiwwrdXX-,-,  5,  VVVVVVVVV",
"VVVVVVVVV @4,*2  44   ooX. .XX &ooooX. XoXX. 44  2,,1@ VVSVVVVVV",
"VVVVVVVVv  ,5,,  34O VC  <43331>-15>,42  CNO 44  ,,,,  VVVVVVVVV",
"SVVVVVVVV  ,,,5<3    kG  3,,6,11,,,,,,,  Gk    <,5,,,  VVVVVVVVV",
"VVVVVVVVV  ,5,,,,    GVVk @,313,,,25,  VCVG    5,,,<,  VVVVVVVVV",
"VVVVVVVVV  5,<,6<,,  VmAG  ,,,,41,,,1  VSBV  ,*,6,,,5  VVVVVCVVV",
"VVVVSVVVV  ,<5*,5,6  VSkkVZ  ,2,5,5  SVVkGS  6,<,,55,  VVVVVVVVV",
"VVVCVVVZV  5,,<53,,  VGVGGk  ,,,56*  kVVVVV  ,,<4<,,,  VVVVVVVVV",
"VVVVVVVVV  ,,*6*,6,  VVVVVVV @,,* @CGVGVVVV  55,-6,,,  VVVVVVVVV",
"VVVVVVVVV  ,64,  ,6  VVVVVVG  5,5  VkVVVVVZ  6*  ,<6,  VVVVVVVVV",
"VVVVVVVVV  ,2<6  1,           ,<,  @       @ ,,  5,<,@ VVVVVVVVV",
"VVVVVVVVV@ ,5  VV    5,4,,5,,     @,,,,,2,5    VV  ,, @VVVVVVVVV",
"VVVVVVVVV  ,,  VZ    ,5,4,,6,      ,<,<5,5,    GV  ,,  VVVVVVSVV",
"VVVVVVVVV    VVVkVV  ,,2,,6,,  BV  ,,5,,,,4  VVkBVV    VVVVVVVVV",
"VVVVVVVVk    VxGGGV  ,5,6,=,6  GA  5,*24,2,  VGGGVV    kVVVVVVVV",
"VVVVVVVVGVVVVGVMV  ,5,,1,,62,  VV  ,55,,5,,6,  mVVDBVVVGVVVVVVVV",
"VVVVVVVVmVVVVVvVV  ,554,,5,,,  VV  ,<,5-,,25,  VVvVVVVVBVVVVVVVV",
"VVSVVVVVVVmVVVVVV       @   @  VV  @ @ @       VCVZVVVVVVVVVVVVV",
"VVVVVVVVVVVVVVVVV              VV              VVVVVVVVSVVVVVVVV"
};
