/* XPM */
static char *result[] = {
/* columns rows colors chars-per-pixel */
"64 64 15 1 ",
"  c #020101",
". c #0A0400",
"X c #040900",
"o c #0C0A00",
"O c #03020A",
"+ c #09020B",
"@ c #120300",
"# c #1A0500",
"$ c #130A00",
"% c #180900",
"& c #0E1000",
"* c #B3B6AF",
"= c #B4B4B4",
"- c #B6B4B8",
"; c #B8B1B9",
/* pixels */
"===============================================================*",
"===============================================================*",
"===============================================================-",
"===============================================================;",
"===============================================================-",
"===============================================================-",
"================================================================",
"================================================================",
"================================================================",
"================================================================",
"================================================================",
"================================================================",
"================================================================",
"================================================================",
"================================================================",
"================================================================",
"================================================================",
"================================================================",
"================================================================",
"================================================================",
"==$...ooXXXX..XXXX.....o==============$.....XXXX.o..o.X.X..$====",
"==$..       .   X ...  .==============.    OOO           X.$====",
"====.                  X====$o==$$====XX   O    O   O    X======",
"====o.              O  X====.o==..====X        .    O   X$======",
"======X   X OO .    .OO .$==X XX.o==#@.              OOX========",
"======o&        .    . O .==X  OO.==@.        O.    O Xo========",
"========.O . ..O   X  OOO..XX  O X...  X O      .   OX==========",
"========$.. .           O      OO  ..O    O    . .  Xo==========",
"==========.O ..    .    O.    OOOX    OO   OO   .  X============",
"==========o .     ...   O+    OO     O O        ..Xo============",
"============.O X        O   O . O    OX         OX==============",
"============.O  O         X OO ...X  O .      X  X==============",
"============. O O     O      O   . O           X X==============",
"============.   O X  X      OO     OO           ..==============",
"============@@.OO+ .X  XO                   OO....==============",
"============%@..@..     OO.     X     . .  .X..@@$==============",
"==================.. X OOO  O    X O... OOOX====================",
"==================$$... O.           .. .X.o====================",
"======================..  ..  X      O .========================",
"======================@.X . .    .  XXXo========================",
"==========================.  O    ..============================",
"==========================oo     ..$============================",
"============================. OOO.==============================",
"============================$.  .$==============================",
"==============================..================================",
"=============================;$#================================",
"================================================================",
"================================================================",
"================================================================",
"================================================================",
"================================================================",
"================================================================",
"================================================================",
"================================================================",
"================================================================",
"================================================================",
"================================================================",
"================================================================",
"================================================================",
"================================================================",
"================================================================",
"================================================================",
"==============================================================;=",
"============================================================*;;;"
};
