/* XPM */
static char *d4fb2fa8b7b94b10dc70e66974546ad0ihdX3PiFMp9VeL6W[] = {
/* columns rows colors chars-per-pixel */
"64 64 42 1 ",
"  c black",
". c #010101",
"X c #020202",
"o c gray1",
"O c #040404",
"+ c gray2",
"@ c #3F3F3F",
"# c gray25",
"$ c #414141",
"% c gray26",
"& c #434343",
"* c #444444",
"= c gray27",
"- c #464646",
"; c gray28",
": c #484848",
"> c #494949",
", c gray29",
"< c #4B4B4B",
"1 c #4C4C4C",
"2 c gray30",
"3 c #4E4E4E",
"4 c gray31",
"5 c gray67",
"6 c #ACACAC",
"7 c gray68",
"8 c #AEAEAE",
"9 c #AFAFAF",
"0 c gray69",
"q c #B1B1B1",
"w c #B2B2B2",
"e c gray70",
"r c #B4B4B4",
"t c gray71",
"y c #B6B6B6",
"u c #B7B7B7",
"i c gray72",
"p c #B9B9B9",
"a c gray73",
"s c #BBBBBB",
"d c #BCBCBC",
"f c gray",
/* pixels */
"rrrrrrrrrrqrq4------------------------------------4qrqrrrrrrrrrr",
"rrrrrrrrrir9r--------------------------------------r9rirrrrrrrrr",
"rrrrrrrr9rq>--->-------------------------------->--->qr9rrrrrrrr",
"rrrrrrrrriq4-->%--------------------------------%>--4qirrrrrrrrr",
"rrrrrrrrrrq%-  +                                +  -%qrrrrrrrrrr",
"rrrrrrrrrqq4-                                      -4qqrrrrrrrrr",
"rrrrrrrrrrr%-+ qqqqqqqqqqqqqqqqqqqqqqqqqqqqqqqqqq +-%rrrrrrrrrrr",
"rrrrrrrrqrr->  rrrrrrrrrrrrrrrrrrrrrrrrrrrrrrrrrr  >-rrqrrrrrrrr",
"rrrrrrrrrrr--  rrrrrrrrrrrrrrrrrrrrrrrrrrrrrrrrrr  --rrrrrrrrrrr",
"rrrrrrrrrrr--  rrrrrrrrrrrrrrrrrrrrrrrrrrrrrrrrrr  --rrrrrrrrrrr",
"rrrrrrrrrrr--  rrrrrrrrrrrrrrrrrrrrrrrrrrrrrrrrrr  --rrrrrrrrrrr",
"rrrrrrrrrrr--  rrrrrrrrrrrrrrrrrrrrrrrrrrrrrrrrrr  --rrrrrrrrrrr",
"rrrrrrrrrrr--  rrrrrrrrrrrrrrrrrrrrrrrrrrrrrrrrrr  --rrrrrrrrrrr",
"rrrrrrrrrrr--  rrrrrrrrrrrrrrrrrrrrrrrrrrrrrrrrrr  --rrrrrrrrrrr",
"rrrrrrrrrrr--  rrrrrrrrrrrrrrrrrrrrrrrrrrrrrrrrrr  --rrrrrrrrrrr",
"rrrrrrrrrrr--  rrrrrrrrrrrrrrrrrrrrrrrrrrrrrrrrrr  --rrrrrrrrrrr",
"rrrrrrrrrrr--  rrrrrrrrrrrrrrrrrrrrrrrrrrrrrrrrrr  --rrrrrrrrrrr",
"rrrrrrrrrrr--  rrrrrrrrrrrrrrrrrrrrrrrrrrrrrrrrrr  --rrrrrrrrrrr",
"rrrrrrrrrrr--  rrrrrrrrrrrrrrrrrrrrrrrrrrrrrrrrrr  --rrrrrrrrrrr",
"rrrrrrrrrrr--  rrrrrrrrrrrrrrrrrrrrrrrrrrrrrrrrrr  --rrrrrrrrrrr",
"rrrrrrrrrrr--  rrrrrrrrrrrrrrrrrrrrrrrrrrrrrrrrrr  --rrrrrrrrrrr",
"rrrrrrrrrrr--  rrrrrrrrrrrrrrrrrrrrrrrrrrrrrrrrrr  --rrrrrrrrrrr",
"rrrrrrrrrrr--  rrrrrrrrrrrrrrrrrrrrrrrrrrrrrrrrrr  --rrrrrrrrrrr",
"rrrrrrrrrrr--  rrrrrrrrrrrrrrrrrrrrrrrrrrrrrrrrrr  --rrrrrrrrrrr",
"rrrrrrrrrrr--  rrrrrrrrrrrrrrrrrrrrrrrrrrqirqrrrr  --rrrrrrrrrrr",
"rrrrrrrrrrr--  rrrrrrrrrrrrrrrrrrrrrrrrrrrqqiqq9r  --rrrrrrrrrrr",
"rrrrrrrrrrr--  rrrrrrrrrrrrrrrrrrrrrrrrri9dqriqrr  --rrrrrrrrrrr",
"rrrrrrrrrrr--  rrrrrrrrrrrrrrrrrrrrrrrrrqqrqrqqrr  --rrrrrrrrrrr",
"rrrrrrrrrrr--  rrrrrrrrrrrrrrrrrrrrrrrrrqirrirqqr  --rrrrrrrrrrr",
"rrrrrrrrrrr--  rrrrrrrrrrrrrrrrrrrrrrrrrqqr9+ rrr  --rrrrrrrrrrr",
"rrrrrrrrrrr--  rrrrrrrrrrrrrrrrrrrrrrrrrrqrr  rrr  --rrrrrrrrrrr",
"rrrrrrrrrrr--  rrrrrrrrrrrrrrrrrrrrrrrrrrrrr  qrr  --rrrrrrrrrrr",
"rrrrrrrrrrr--  rrrrrrrrrrrrrrrrrrrrrrrrrrqiq  qrr  --rrrrrrrrrrr",
"rrrrrrrrrrr--  rrrrrrrrrrrrrrrrrrrrrrrrrqqrr  rqr  --rrrrrrrrrrr",
"rrrrrrrrrrr--  rrrrrrrrrrrrrrrrrrrrrrrrrrrqq  rrr  --rrrrrrrrrrr",
"rrrrrrrrrrr--  rrrrrrrrrrrrrrrrrrrrrrrrrqqri  qqr  --rrrrrrrrrrr",
"rrrrrrrrrrr--  rrrrrrrrrrrrrrrrrrrrrrrrrrqqq  rrr  --rrrrrrrrrrr",
"rrrrrrrrrrr--  rrrrrrrrrrrrrrrrrrrrrrrrrqirr  rrr  --rrrrrrrrrrr",
"rrrrrrrrrrr--  rrrrrrrrrrrrrrrrrrrrrrrrri9riqdrqr  --rrrrrrrrrrr",
"rrrrrrrrrrr--  rrrrrrrrrrrrrrrrrrrrrrrrrqiqrrqrrr  --rrrrrrrrrrr",
"rrrrrrrrrrr--  rrrrrrrrrrrrrrrrrrrrrrrrrrrrrrrrrr  --rrrrrrrrrrr",
"rrrrrrrrrrr--  rrrrrrrrrrrrrrrrrrrrrrrrrrrrrrrrrr  --rrrrrrrrrrr",
"rrrrrrrrrrr--  rrrrrrrrrrrrrrrrrrrrrrrrrrrrrrrrrr  --rrrrrrrrrrr",
"rrrrrrrrrrr--  rrrrrrrrrrrrrrrrrrrrrrrrrrrrrrrrrr  --rrrrrrrrrrr",
"rrrrrrrrrrr--  rrrrrrrrrrrrrrrrrrrrrrrrrrrrrrrrrr  --rrrrrrrrrrr",
"rrrrrrrrrrr--  rrrrrrrrrrrrrrrrrrrrrrrrrrrrrrrrrr  --rrrrrrrrrrr",
"rrrrrrrrrrr--  rrrrrrrrrrrrrrrrrrrrrrrrrrrrrrrrrr  --rrrrrrrrrrr",
"rrrrrrrrrrr--  rrrrrrrrrrrrrrrrrrrrrrrrrrrrrrrrrr  --rrrrrrrrrrr",
"rrrrrrrrrrr--  rrrrrrrrrrrrrrrrrrrrrrrrrrrrrrrrrr  --rrrrrrrrrrr",
"rrrrrrrrrrr--  rrrrrrrrrrrrrrrrrrrrrrrrrrrrrrrrrr  --rrrrrrrrrrr",
"rrrrrrrrrrr--  rrrrrrrrrrrrrrrrrrrrrrrrrrrrrrrrrr  --rrrrrrrrrrr",
"rrrrrrrrrrr--  rrrrrrrrrrrrrrrrrrrrrrrrrrrrrrrrrr  --rrrrrrrrrrr",
"rrrrrrrrrrr--  rrrrrrrrrrrrrrrrrrrrrrrrrrrrrrrrrr  --rrrrrrrrrrr",
"rrrrrrrrrrr--  rrrrrrrrrrrrrrrrrrrrrrrrrrrrrrrrrr  --rrrrrrrrrrr",
"rrrrrrrrrrr--  rrrrrrrrrrrrrrrrrrrrrrrrrrrrrrrrrr  --rrrrrrrrrrr",
"rrrrrrrrrrr--  rrrrrrrrrrrrrrrrrrrrrrrrrrrrrrrrrr  --rrrrrrrrrrr",
"rrqqrrrrr9r->  rqqqqqqqqqqqrqqqqqqqqqqqqqqqrqqqqi  >-qrrrqqrqirq",
"qqirr9rrrrr%-  rrrrrrrrrrrrrrrrrrrrrrrrrrrrrrrrr9+ ->i9qqdqriqqi",
"qq9rrriqqrq>%  9qqqqqqqqrrrrqqqqqqqqqqqqrrrrqqqqi  ->qqirqrq9rrr",
"iqirq%->>%-@4%->--------------------------------%-->%>-%>%>-qirq",
"9qrqi%>%-4>-->-------------------------------------%->--->>>qqqr",
"idqqrqr>-@->%>%>--------------------------------%4-4-%->%-9rrrrq",
"q5iqqrq--4-->%>--------------------------------->%--%4%>>%i9rqrr",
"qirqrrqrr%>-->%>---------------------------------->-%->%rrqrqiqr"
};
