/* XPM */
static char *result[] = {
/* columns rows colors chars-per-pixel */
"64 64 171 2 ",
"   c #000305",
".  c #000906",
"X  c #00030B",
"o  c #00090C",
"O  c #000513",
"+  c #010912",
"@  c #00051B",
"#  c #000A1C",
"$  c #04181F",
"%  c #000625",
"&  c #3C5473",
"*  c #355971",
"=  c #3D5874",
"-  c #3C577F",
";  c #3E5B7E",
":  c #6C7C5C",
">  c #747D56",
",  c #727A5B",
"<  c #455674",
"1  c #4B5673",
"2  c #435D75",
"3  c #42577B",
"4  c #49557D",
"5  c #425B7C",
"6  c #4A5C7A",
"7  c #5E757D",
"8  c #5B787F",
"9  c #637564",
"0  c #627C64",
"q  c #6B7C65",
"w  c #64776A",
"e  c #647D6C",
"r  c #6C7D6C",
"t  c #727D62",
"y  c #757F6D",
"u  c #647B73",
"i  c #6A7D73",
"p  c #64747D",
"a  c #6C767E",
"s  c #637B7C",
"d  c #6A7B7C",
"f  c #707A71",
"g  c #63815E",
"h  c #71815B",
"j  c #678363",
"k  c #6C836E",
"l  c #738566",
"z  c #668174",
"x  c #6C8173",
"c  c #66817D",
"v  c #6C8078",
"b  c #718573",
"n  c #71827B",
"m  c #3F5782",
"M  c #3C5A84",
"N  c #3D558B",
"B  c #3C598A",
"V  c #3C5490",
"C  c #435684",
"Z  c #435C83",
"A  c #4A5C85",
"S  c #43558B",
"D  c #48568B",
"F  c #435A8B",
"G  c #4B5A8B",
"H  c #435592",
"J  c #445B93",
"K  c #4B5892",
"L  c #445B99",
"P  c #446284",
"I  c #577482",
"U  c #5D7583",
"Y  c #5D7B84",
"T  c #5C758A",
"R  c #5D7B8C",
"E  c #577795",
"W  c #5D7594",
"Q  c #5D7A95",
"!  c #5C759D",
"~  c #5E7A9B",
"^  c #647584",
"/  c #6A7583",
"(  c #637B84",
")  c #6A7C84",
"_  c #63758B",
"`  c #69768B",
"'  c #637C8B",
"]  c #6A7B8B",
"[  c #727B83",
"{  c #747F8B",
"}  c #637693",
"|  c #687692",
" . c #637B94",
".. c #697C92",
"X. c #62759B",
"o. c #627A9C",
"O. c #697D9C",
"+. c #707A94",
"@. c #5E76A4",
"#. c #5D7AA2",
"$. c #5E76AB",
"%. c #5D79AA",
"&. c #5D76B2",
"*. c #5F78B1",
"=. c #6176A3",
"-. c #637AA3",
";. c #6A7DA2",
":. c #6276AC",
">. c #6976AB",
",. c #647AAA",
"<. c #697AAA",
"1. c #6376B5",
"2. c #6279B1",
"3. c #5F8486",
"4. c #5C838C",
"5. c #5F8193",
"6. c #648186",
"7. c #6A8285",
"8. c #64818D",
"9. c #69828C",
"0. c #708482",
"q. c #648193",
"w. c #698193",
"e. c #63809B",
"r. c #698498",
"t. c #878A90",
"y. c #969695",
"u. c #999695",
"i. c #969D93",
"p. c #9C9C96",
"a. c #9D979B",
"s. c #969B9C",
"d. c #9E9E9E",
"f. c #A0969C",
"g. c #A19D9D",
"h. c #8FA29F",
"j. c #9BA296",
"k. c #96A29E",
"l. c #9BA19D",
"z. c #A2A19D",
"x. c #969EA2",
"c. c #9D9EA1",
"v. c #9B9FA9",
"b. c #A29DA2",
"n. c #A99DA7",
"m. c #94A2A2",
"M. c #9CA1A2",
"N. c #97A1A9",
"B. c #9EA5A9",
"V. c #A2A2A2",
"C. c #A8A8A7",
"Z. c #DCEB8C",
"A. c #DAEC96",
"S. c #DAE6A3",
"D. c #DCE0AD",
"F. c #DEE9AF",
"G. c #CDE4BF",
"H. c #DFE9B3",
"J. c #D4E4BD",
"K. c #D9E6B8",
"L. c #DFEABA",
"P. c #E0E9A7",
"I. c #E6EBB2",
"U. c #CEEAC4",
"Y. c #CFEAC9",
"T. c #D3E5C1",
"R. c #D1EBC4",
"E. c #D6EBCB",
"W. c #D8EBCB",
"Q. c #D4F1C3",
"!. c #FFFEFF",
/* pixels */
"d.d.d.d.g.c.d.d.d.d.d.d.d.l.b.d.j.g.g.j.l.c.k.d.c.V.p.V.d.b.d.b.p.b.g.g.g.g.d.d.M.d.k.c.c.c.b.d.d.d.d.d.l.b.d.d.d.d.z.d.d.d.d.d.",
"d.d.d.d.g.l.d.d.g.d.d.g.d.d.d.g.g.g.g.p.d.M.c.c.p.V.d.a.p.V.c.!.b.p.z.f.f.g.V.p.d.l.d.k.M.d.f.b.g.M.d.d.d.d.d.d.d.d.c.d.d.d.d.d.",
"d.d.d.d.d.c.d.d.M.d.d.d.d.d.d.d.d.g.d.d.d.c.k.d.V.y.V.V.b.c.d.  V.g.p.b.g.d.d.l.k.d.c.l.d.c.c.g.d.d.d.d.d.d.d.d.d.d.d.d.d.d.d.d.",
"c.d.d.d.d.d.d.d.d.d.d.d.d.d.d.d.d.d.d.d.M.d.d.c.V.d.d.z.y.p.d.  b.s.V.d.g.z.d.g.d.d.l.d.d.d.d.c.g.d.d.d.g.c.d.d.d.d.d.d.d.g.c.d.",
"g.l.g.g.c.d.d.d.d.d.d.d.d.g.d.d.g.d.d.z.d.d.d.d.p.d.p.a.C.d.d.  s.M.M.M.z.p.d.z.d.j.d.d.d.d.d.g.d.d.d.d.d.d.d.d.d.d.d.z.d.b.d.d.",
"c.g.l.c.d.d.d.d.M.d.d.d.d.l.d.d.d.g.d.c.l.d.d.d.d.z.z.z.y.d.d.  . m.M.s.M.d.b.p.g.d.j.d.d.d.d.d.M.d.d.d.d.d.d.d.d.d.d.c.d.l.d.d.",
"d.d.d.d.d.d.g.d.g.d.g.d.d.c.d.d.M.d.c.c.c.d.d.d.g.g.p.d.V.M.m.  a . h.M.s.V.p.b.g.d.p.d.d.d.d.d.d.d.g.d.d.z.d.d.d.d.d.d.d.d.d.d.",
"g.d.d.d.d.d.l.b.d.d.c.g.l.g.d.d.g.c.g.d.c.c.d.g.p.g.g.d.M.c.  X ) s X x.M.M.b.f.g.g.z.d.d.d.d.d.d.d.d.d.d.c.d.d.d.d.d.d.d.d.d.d.",
"d.d.d.d.b.l.d.d.d.d.d.d.d.d.d.d.M.d.c.c.c.g.d.d.g.d.g.c.c.  a X ) s ) X B.s.b.f.z.g.g.d.d.d.d.d.d.d.d.d.d.d.d.c.d.d.d.d.d.d.d.d.",
"c.d.d.d.d.d.d.d.d.d.d.d.g.d.d.d.g.d.b.d.c.d.g.d.g.z.d.c.  [ ) X ) Y ( a X M.c.V.g.g.d.g.d.d.d.d.c.d.d.d.g.d.d.g.g.c.d.d.d.d.d.d.",
"z.d.d.d.d.d.c.g.d.d.g.d.d.z.d.d.c.c.c.d.l.g.g.z.g.p.d.X a a ) ' ' 9.] p [ X p.d.g.z.d.d.d.d.d.d.g.l.d.d.l.b.g.l.d.d.d.b.d.d.d.d.",
"d.d.d.d.d.d.d.d.d.d.d.M.d.c.d.d.d.c.d.c.g.c.d.d.p.z.V.X X ] ] ' ' ' ^ ) X X v.V.d.p.d.d.d.d.d.d.c.g.d.d.d.d.c.d.d.d.d.l.d.d.M.g.",
"d.d.d.d.d.d.d.d.d.d.d.d.d.d.d.d.d.d.d.d.d.d.d.d.d.V.x.X / O _ '  .Y ' O / X v.c.j.d.d.d.d.d.b.d.d.d.d.d.d.d.d.d.d.d.d.d.d.g.d.d.",
"d.d.d.d.d.d.d.d.d.d.d.d.d.d.d.d.l.d.d.d.d.d.g.g.d.c.x.o ) U # Q Q  .O ` { X B.s.l.d.j.d.d.d.g.c.d.d.l.g.d.d.d.d.d.c.d.d.d.d.d.d.",
"d.d.d.c.d.d.d.d.d.d.b.d.g.d.d.d.l.c.d.d.d.d.d.d.c.V.  X )  . .@  .# ' / / O   M.c.d.d.l.d.d.b.d.d.d.b.d.d.d.b.l.d.d.d.d.d.d.d.d.",
"d.d.d.g.z.c.d.d.d.d.l.d.d.d.c.d.d.d.g.g.j.d.d.c.c.  [ O _ 2 5 o.@  .6 < ] X a   m.k.d.d.d.d.g.g.g.d.d.d.d.d.d.g.d.d.d.d.d.z.d.c.",
"d.l.d.d.d.g.l.g.d.d.d.d.c.d.d.d.V.p.z.g.d.M.M.s.X ) ( +  .; A X.'  .C C ' X p ) . M.x.v.d.z.f.f.d.d.d.d.c.g.d.d.d.d.d.d.g.l.g.c.",
"d.b.d.d.d.c.g.c.d.d.d.d.d.g.d.d.a.V.a.f.M.k.c.X ( ( ( ( @ o.} } O ..=.<.@ 7.6.s ) o N.x.z.p.p.z.g.l.g.d.g.l.d.d.d.d.d.d.c.d.d.g.",
"d.d.d.d.d.b.d.d.d.d.c.d.d.b.d.d.V.d.V.c.d.c.o p ) Y 6.c ( o 9.( s ' T % 7 ( ] ( ^ ] X x.s.z.z.g.g.d.c.d.d.d.d.d.d.d.d.d.d.d.d.d.",
"d.d.d.d.d.l.d.d.d.d.z.d.d.l.d.d.d.y.V.V.c.X a ) s 8.8 9.6.( . 7.. s # _ 8.( Y ' ..^ )   M.V.d.d.l.d.d.d.c.g.d.d.l.b.d.d.d.d.d.d.",
"d.d.d.d.d.d.d.d.d.d.d.d.d.c.d.g.d.V.g.l.x.X X / '  .Y ' R R ( o ( X ( ' 8.6.Y ' _ ] O   x.a.V.d.g.b.g.c.g.d.d.d.l.d.d.g.M.d.d.d.",
"d.b.l.d.d.d.d.d.d.d.d.d.d.d.d.l.z.z.p.V.x.+ ) O '  . .Q R 8.R 6.o 6.( ' Y ( 9.U ) o )   x.d.d.b.d.d.l.d.d.d.d.d.b.d.d.c.g.d.d.d.",
"d.d.d.d.l.g.d.d.d.d.d.d.d.g.d.g.p.p.l.s.z.  ) 6.o ( Y 5.9.R R R ' _ ' ' ' ' Y 6.. d a o M.c.g.d.d.d.d.d.d.d.d.b.d.d.d.d.c.d.d.d.",
"d.d.g.c.g.c.d.d.d.d.d.d.b.l.d.d.g.z.l.j.z.  s Y ( O ' ' Y 8.Y 8.R  . .q.Y ' 8.X c u ) X M.d.g.p.d.d.d.d.d.d.d.l.d.d.d.g.l.g.d.d.",
"d.d.d.d.d.d.c.g.c.d.d.d.l.g.c.g.z.p.d.M.d.  7.Y R Y o ] ' ' 8.R 9.T  .' ' ' + R s s 7.X c.M.p.d.d.d.l.d.l.c.d.d.d.d.d.c.g.d.d.l.",
"d.d.c.d.d.d.g.l.g.d.d.d.d.d.d.d.d.z.d.d.c.  ) q.Q r.s . ' R 5.q.'  .q.' R # R 9.' ) / X x.d.V.d.d.d.b.d.g.g.d.d.d.d.d.d.d.d.d.b.",
"d.d.g.l.d.d.d.d.d.d.l.b.c.g.g.l.p.b.m.x.b.X  .~ X.T ) 0.O ' R R ( Y ( Y + Q R ~ o. .] X x.x.b.b.d.d.d.d.d.d.d.d.d.g.d.g.d.d.d.d.",
"d.g.c.g.d.d.d.d.d.d.d.d.d.d.d.g.g.d.c.v.b.O ~ M F  .b 9 7.+ 8.' ( 9.Y +  .T O.~ S A / X x.V.c.b.d.d.d.d.g.c.d.d.d.d.c.l.d.d.d.d.",
"d.d.d.d.d.c.b.d.d.d.d.d.d.d.d.d.b.d.c.x.c.X } Z B ' : > u 6.o ' ( _ O R q.r.~ #.S D `   M.M.d.b.g.c.g.d.d.l.b.d.d.d.d.d.d.c.l.g.",
"b.l.d.d.l.g.l.d.d.d.d.d.l.d.d.d.d.b.d.d.c.X ' o.#.' K.H.i 8 9.O 9.O  .} ~ = = -.1.>.` X M.d.b.f.g.l.d.d.d.d.d.d.d.d.d.d.d.g.d.d.",
"d.d.d.d.g.d.d.d.d.g.l.g.b.d.d.d.p.z.d.d.z.  ] o.#.8.L.H.d _ e.} O  .~ -.W 2 Z -.:.=._ X x.a.V.V.g.d.d.d.d.d.d.d.d.g.d.d.d.d.d.c.",
"d.d.d.d.c.g.d.d.d.c.g.c.d.d.d.g.g.p.d.z.p.  _ 5 M R q : ) 5 A o. . .C F  .' '  .C A ] o M.M.p.g.l.d.d.d.g.c.d.g.l.c.b.l.d.d.d.g.",
"d.d.d.d.d.d.d.d.d.d.d.d.d.d.d.g.g.g.d.b.d.   .5 ; o. . .X.< Z  .+ w.M m d r k s 5 - ] X k.d.V.b.d.d.d.d.d.d.g.g.c.g.d.d.d.d.d.d.",
"d.b.l.d.d.d.d.d.c.d.d.d.d.d.d.d.p.d.b.d.l.  } o.~ o.B B ;.o.~ Q 8.T %.o.r T.G.x  .<._ X k.k.b.b.d.d.d.d.d.d.c.l.d.d.d.d.d.d.g.d.",
"d.d.g.d.d.d.c.z.z.d.c.g.d.d.g.d.d.g.z.p.g.X o.-.-.%.V B -.o.~  .O _ :.<.i E.R.u X.<.^   k.j.g.f.g.d.d.d.d.d.d.d.d.d.d.d.d.d.c.l.",
"d.d.d.c.d.d.d.d.d.d.g.l.d.d.M.d.c.d.s.b.c.X o.B M @.$.%.o.3 Z o.)  .H S ( e e d C S ]   p.p.z.g.d.g.c.d.d.d.d.d.d.d.l.b.d.g.c.g.",
"d.d.d.d.d.d.d.d.d.d.d.d.d.d.d.d.d.d.p.M.d.X  .Z m %.%.%.-.= Z Q O ' J B  .( ]  .S C ..X c.g.b.b.c.d.d.c.d.d.l.b.g.d.l.d.d.d.l.b.",
"d.d.d.d.d.d.d.d.d.d.d.d.g.d.d.d.d.d.M.a.z.  _ ~ ~ #.B M -.~ ~ ~ ] _ :.%.~ 2 3 =.$.,.` O v.c.c.c.g.d.d.d.g.l.d.d.c.d.d.d.d.d.d.d.",
"g.c.d.c.d.d.d.b.d.g.d.c.d.d.d.d.d.d.M.x.j.   .o.o.#.M B -.-.! ~ O } %.%.~ 2 P ! $.,.} O x.v.M.l.d.d.d.d.c.d.d.d.d.d.b.d.d.d.d.d.",
"d.g.l.g.d.d.d.l.d.d.d.d.c.d.d.d.d.d.c.b.d.   .Z 3 #.@.%.o.5 Z o.| } F B ~ ~ E ,.B C | X c.d.l.j.d.d.d.d.g.d.d.d.d.d.d.d.d.d.d.d.",
"d.d.d.d.d.c.g.l.d.d.d.d.d.d.d.d.b.d.f.z.g.  | < 5 -.$.$.-.< Z o.@ ` G B ! ~ o.~ M C ] X l.j.j.j.d.g.d.d.d.d.d.d.d.d.d.d.d.c.d.g.",
"b.l.d.d.d.d.c.g.d.d.b.l.d.d.z.c.a.d.z.g.d.  ] ..] } F F W O.E ~ _ ) ` } ;.Z ; o.] ^ {   k.y.V.d.d.M.d.d.c.d.d.d.d.d.d.d.d.d.g.l.",
"d.d.d.d.b.l.g.d.d.d.d.d.d.d.d.d.c.b.p.z.f.  d e u ( C J X. .-.O.# d , t ' C S ' t > f   x.b.f.b.g.d.d.d.g.l.d.d.g.d.d.d.d.d.c.d.",
"d.d.d.d.d.d.d.d.d.d.d.d.g.c.d.d.c.d.z.f.V.  q Y.U.z =.:.X.6 5 Q _ v I.D.d  .} ) F.P.y X v.b.b.b.g.d.d.g.c.g.d.d.l.b.d.d.g.d.d.d.",
"d.b.d.d.d.d.d.d.d.l.b.d.d.d.d.d.d.d.g.p.b.  : U.U.z ~ :.o.5 ; Q + w D.I.l 9 i : S.S.r X a.v.n.n.b.d.d.d.d.d.d.d.g.d.d.d.l.d.d.d.",
"d.l.d.d.d.d.d.d.d.d.d.d.d.d.d.d.d.V.p.V.g.  b 0 j s Z F o. .~ e.+ u t > , W.G.h > t n X M.V.a.b.c.d.d.d.d.d.l.b.M.d.d.d.b.d.d.d.",
"d.d.c.g.c.d.d.d.d.d.d.d.d.d.d.d.a.d.c.d.p.  ` ] ] } B F W ;.~ Q 6.7 ] / f E.J.r 1 4 U . m.s.V.p.d.d.d.g.d.d.d.d.d.d.g.c.c.d.d.d.",
"d.d.g.l.g.d.d.d.g.c.d.g.l.c.d.c.M.c.d.d.g.  } A C -.:.$.-.3 M ~ o 9.C A ) i r d S D ] . M.M.k.z.d.d.d.d.d.d.g.d.d.d.l.g.d.d.d.d.",
"d.d.d.d.d.d.d.l.g.c.d.d.d.d.d.d.g.d.d.b.g.   .A - -.&.*.:.3 ; ~ ' _ F F E q.Q  .} o.) X c.M.s.M.d.d.d.d.d.d.d.d.d.g.d.d.d.d.g.l.",
"d.d.d.d.d.d.c.g.d.d.d.d.d.d.d.d.p.g.b.x.g.X ` o.X.,.L V ,.o.~ q.O  .=.2.%.M - -.~  ./ X M.k.V.d.d.d.l.d.M.g.d.d.d.d.c.g.d.d.d.b.",
"g.d.c.g.d.d.d.d.g.d.d.b.d.d.d.d.j.g.V.a.g.X } ! e.! B V -.o. .Q ( ' -.@.E M = -.H S +.X x.M.a.M.d.d.b.d.d.d.d.d.d.d.d.g.d.d.d.d.",
"d.c.g.l.d.d.d.b.d.d.d.l.z.d.d.d.p.d.p.z.d.X  .A & ,.*.*.X.6 5  .O ..Z Z ~ e.o.-.H K ` X m.d.b.p.d.d.d.d.d.d.d.d.d.d.c.l.d.d.d.d.",
"d.d.d.d.d.d.d.l.l.d.d.d.d.d.d.d.f.g.d.M.c.X  .5 5 -.&.1.=.< 5 X.O.} D S Q R o.X.@. ./   d.s.V.b.g.d.d.d.d.d.d.d.d.g.d.d.d.c.l.g.",
"l.d.d.d.c.d.d.d.b.d.d.d.d.d.d.c.c.c.b.a.c.X  .o.Q o.L N O.` ' R @ o.:.>.o.2 3 ..u b i   j.l.p.b.d.d.d.d.d.d.d.d.d.d.d.d.d.d.c.g.",
"b.d.d.d.g.c.d.d.d.d.c.g.d.d.d.c.c.b.V.a.M.X } ~ Q e.B N ) k : z Y Q :.%.} 4 C ) A.Z.t X p.i.M.x.M.d.d.d.d.l.b.d.d.d.d.d.d.d.d.d.",
"d.d.d.d.l.g.g.d.d.d.d.d.d.d.d.g.c.v.d.c.d.X  .5 2 ~ 2.-.u G.Q.g . q.M B ;.} ,.s A.Z.q X j.z.s.x.c.d.d.d.d.d.d.d.d.d.M.g.d.d.d.d.",
"g.c.d.g.g.l.d.d.d.d.c.g.d.d.d.c.b.x.b.d.y.o } P 2 ! :.-.u G.R.j s w.- C -.-.! 5.x q d o p.g.a.c.c.d.d.g.d.d.d.d.l.b.d.d.c.g.c.g.",
"d.d.d.l.c.d.d.d.d.d.g.l.d.d.g.M.c.V.d.a.V.X ..T  .e.S C ) x k u . ' ! ,.! ; P E  .' _ X V.p.b.c.g.d.d.d.d.d.d.d.d.d.d.d.g.l.d.d.",
"d.d.d.c.d.d.d.d.d.d.d.g.d.d.d.d.V.y.z.V.d.X ) q.U o.F S } }  . .) ..@.$.%.M * 5.' ^ 7.  y.z.V.b.c.g.g.c.d.d.b.d.d.d.d.d.d.d.d.d.",
"d.d.d.g.d.d.d.d.d.d.d.c.d.d.d.d.V.z.p.p.f.X ] U 9. .-.=.o.A F X.O ' D F #.5.R 5.9.( a   p.z.d.b.b.d.l.g.c.d.l.d.d.d.d.d.d.b.l.d.",
"d.d.d.d.l.g.d.d.d.d.d.d.g.l.g.d.p.j.p.z.b.x.X 9.) ` Q  .O.& A  .] } K S E 4.4.I T 8.  i.j.z.a.n.d.d.d.d.g.d.d.d.d.d.l.d.d.d.d.d.",
"l.b.d.d.c.d.d.b.c.d.d.d.d.d.d.d.g.g.g.u.b.a.m.. ( 9.' ' _  .Q R O } >.-.4.3.' w.9.+ j.l.p.a.b.c.b.d.d.d.c.g.d.d.d.d.b.d.d.d.d.d.",
"d.c.d.d.d.d.d.d.g.d.l.g.d.d.d.c.c.c.V.f.b.V.k.h.X s 8._ q.T 4.8.8.Y  .W Y _ ] / X s.V.M.V.B.d.d.c.d.d.d.g.l.d.d.d.d.d.d.g.l.d.d.",
"l.d.g.d.g.d.d.c.g.l.d.d.d.d.d.b.b.x.b.g.n.p.k.m.m.$ c Y Y q.R 4.o 3.Y 8.( ) ` O t.c.d.a.c.b.d.M.l.d.d.d.c.d.d.d.d.d.d.g.c.g.c.d."
};
